<svg xmlns="http://www.w3.org/2000/svg" version="1.1" xmlns:xlink="http://www.w3.org/1999/xlink" xmlns:svgjs="http://svgjs.dev/svgjs" width="2000" height="1952" viewBox="0 0 2000 1952"><g transform="matrix(1,0,0,1,-0.4976314892796836,37.20768301041528)"><svg viewBox="0 0 254 248" data-background-color="#111111" preserveAspectRatio="xMidYMid meet" height="1952" width="2000" xmlns="http://www.w3.org/2000/svg" xmlns:xlink="http://www.w3.org/1999/xlink"><g id="tight-bounds" transform="matrix(1,0,0,1,0.06319919913852345,0.4000000000000057)"><svg viewBox="0 0 253.87360160172295 247.2" height="247.2" width="253.87360160172295"><g><svg viewBox="0 0 488.8627199999999 476.0119351581288" height="247.2" width="253.87360160172295"><g transform="matrix(1,0,0,1,46.671359999999964,271.1382660933806)"><svg viewBox="0 0 395.52 204.87366906474819" height="204.87366906474819" width="395.52"><g id="textblocktransform"><svg viewBox="0 0 395.52 204.87366906474819" height="204.87366906474819" width="395.52" id="textblock"><g><svg viewBox="0 0 395.52 204.87366906474819" height="204.87366906474819" width="395.52"><g transform="matrix(1,0,0,1,0,0)"><svg width="395.52" viewBox="0.98 -35.16 67.86999999999999 35.16" height="204.87366906474819" data-palette-color="#0074d9"><path d="M20.24-30.66L20.24 0 10.55 0 10.55-30.66 0.98-30.66 0.98-35.16 29.81-35.16 29.81-30.66 20.24-30.66ZM68.85-17.63L68.85-17.63Q68.85-15.06 68.16-12.76 67.48-10.45 66.25-8.5 65.01-6.54 63.3-4.97 61.59-3.39 59.53-2.29 57.47-1.2 55.11-0.6 52.76 0 50.27 0L50.27 0 34.76 0 34.76-35.16 50.27-35.16Q52.76-35.16 55.1-34.57 57.44-33.98 59.51-32.9 61.57-31.81 63.29-30.25 65.01-28.69 66.25-26.75 67.48-24.8 68.16-22.5 68.85-20.19 68.85-17.63ZM59.01-17.63L59.01-17.63Q59.01-20.48 58.31-23.06 57.61-25.63 56.15-27.59 54.69-29.54 52.43-30.69 50.17-31.84 47.02-31.84L47.02-31.84 44.46-31.84 44.46-3.42 47.02-3.42Q50.12-3.42 52.38-4.58 54.64-5.74 56.11-7.7 57.59-9.67 58.3-12.23 59.01-14.79 59.01-17.63Z" opacity="1" transform="matrix(1,0,0,1,0,0)" fill="#0074d9" class="wordmark-text-0" data-fill-palette-color="primary" id="text-0"></path></svg></g></svg></g></svg></g></svg></g><g><svg viewBox="0 0 488.8627199999999 222.77250979525112" height="222.77250979525112" width="488.8627199999999"><g><svg xmlns="http://www.w3.org/2000/svg" xmlns:xlink="http://www.w3.org/1999/xlink" version="1.1" x="0" y="0" viewBox="5 29.49391886595174 90 41.01258914071542" enable-background="new 0 0 100 100" xml:space="preserve" height="222.77250979525112" width="488.8627199999999" class="icon-icon-0" data-fill-palette-color="accent" id="icon-0"><g fill="#0074d9" data-fill-palette-color="accent"><path d="M23.943 30.807L5 50.001 23.942 69.193A4.386 4.386 0 0 0 30.2 69.195 4.52 4.52 0 0 0 30.202 62.857L18.193 50.695 14.569 52.984 30.203 37.143A4.5 4.5 0 0 0 31.498 33.975 4.5 4.5 0 0 0 30.201 30.805 4.387 4.387 0 0 0 23.943 30.807" fill="#0074d9" data-fill-palette-color="accent"></path><path d="M76.057 30.808L95 50.001 76.058 69.193A4.386 4.386 0 0 1 69.8 69.195 4.52 4.52 0 0 1 69.798 62.857L81.807 50.696 85.431 52.985 69.796 37.144A4.5 4.5 0 0 1 68.501 33.976 4.5 4.5 0 0 1 69.798 30.806 4.386 4.386 0 0 1 76.057 30.808" fill="#0074d9" data-fill-palette-color="accent"></path><path d="M60.899 32.352A4.5 4.5 0 0 0 58.533 29.876 4.386 4.386 0 0 0 52.708 32.164L38.888 64.226A4.5 4.5 0 0 0 38.84 67.648 4.5 4.5 0 0 0 41.206 70.124 4.386 4.386 0 0 0 47.031 67.836L60.851 35.774A4.5 4.5 0 0 0 60.899 32.352" fill="#0074d9" data-fill-palette-color="accent"></path></g></svg></g></svg></g><g></g></svg></g><defs></defs></svg><rect width="253.87360160172295" height="247.2" fill="none" stroke="none" visibility="hidden"></rect></g></svg></g></svg>